<svg width="440" height="496" viewBox="0 0 440 496" fill="none" xmlns="http://www.w3.org/2000/svg">
<g clip-path="url(#clip0_306_125)">
<circle cx="198.567" cy="248.522" r="137.082" transform="rotate(90 198.567 248.522)" stroke="white" stroke-opacity="0.2" stroke-width="34.4009" stroke-dasharray="1.04 10.42"/>
<path fill-rule="evenodd" clip-rule="evenodd" d="M198.04 402.803L198.155 368.402C198.293 368.403 198.43 368.403 198.568 368.403C198.705 368.403 198.843 368.403 198.98 368.402L199.095 402.803C198.919 402.803 198.744 402.804 198.568 402.804C198.392 402.804 198.216 402.803 198.04 402.803ZM44.2858 247.994L78.6865 248.109C78.686 248.246 78.6858 248.384 78.6858 248.521C78.6858 248.659 78.686 248.796 78.6865 248.933L44.2858 249.048C44.2852 248.873 44.2849 248.697 44.2849 248.521C44.2849 248.345 44.2852 248.169 44.2858 247.994ZM44.6723 259.539L78.9878 257.118C79.007 257.39 79.0271 257.661 79.0481 257.933L44.7496 260.586C44.7227 260.237 44.6969 259.888 44.6723 259.539ZM45.9115 271.006L79.9515 266.036C79.9906 266.304 80.0306 266.571 80.0715 266.839L46.0661 272.04C46.0134 271.695 45.9619 271.351 45.9115 271.006ZM48.0065 282.356L81.5773 274.844C81.6366 275.109 81.6967 275.374 81.7578 275.638L48.2392 283.379C48.1605 283.038 48.0829 282.697 48.0065 282.356ZM50.9473 293.51L83.8575 283.493C83.9363 283.752 84.016 284.011 84.0965 284.269L51.2556 294.511C51.1517 294.178 51.049 293.844 50.9473 293.51ZM54.7216 304.416L86.7838 291.949C86.8821 292.202 86.9813 292.454 87.0813 292.706L55.1052 305.393C54.9763 305.068 54.8484 304.742 54.7216 304.416ZM59.3039 315.003L90.3384 300.161C90.4555 300.406 90.5735 300.65 90.6923 300.894L59.7599 315.948C59.6069 315.634 59.4549 315.319 59.3039 315.003ZM64.6704 325.22L94.5048 308.093C94.6401 308.329 94.7762 308.564 94.913 308.799L65.1958 326.128C65.0196 325.826 64.8445 325.524 64.6704 325.22ZM70.7843 335.004L99.2562 315.697C99.4089 315.922 99.5624 316.147 99.7166 316.371L71.3765 335.871C71.1781 335.583 70.9807 335.294 70.7843 335.004ZM77.6126 344.307L104.567 322.932C104.736 323.146 104.906 323.358 105.077 323.57L78.2672 345.127C78.0481 344.854 77.8299 344.581 77.6126 344.307ZM85.1132 353.075C85.3503 353.332 85.5883 353.588 85.8271 353.844L110.96 330.355C110.774 330.156 110.589 329.956 110.404 329.756L85.1132 353.075ZM93.2448 361.262L116.734 336.129C116.933 336.314 117.133 336.5 117.333 336.684L94.0139 361.975C93.7567 361.738 93.5004 361.5 93.2448 361.262ZM101.962 368.821L123.518 342.012C123.73 342.183 123.943 342.352 124.156 342.521L102.782 369.476C102.508 369.259 102.234 369.041 101.962 368.821ZM111.218 375.712L130.718 347.372C130.843 347.458 130.967 347.543 131.092 347.629C131.192 347.697 131.292 347.765 131.392 347.833L112.085 376.304C111.795 376.108 111.506 375.911 111.218 375.712ZM120.96 381.893L138.29 352.176C138.524 352.313 138.76 352.449 138.995 352.584L121.868 382.418C121.565 382.244 121.262 382.069 120.96 381.893ZM131.141 387.329L146.194 356.396C146.438 356.515 146.683 356.633 146.928 356.75L132.086 387.785C131.77 387.634 131.455 387.482 131.141 387.329ZM141.696 391.983L154.383 360.007C154.635 360.107 154.887 360.207 155.14 360.305L142.672 392.367C142.346 392.24 142.021 392.112 141.696 391.983ZM152.578 395.833L162.82 362.992C163.078 363.073 163.337 363.152 163.596 363.231L153.579 396.141C153.245 396.04 152.911 395.937 152.578 395.833ZM163.709 398.85L171.451 365.331C171.715 365.392 171.979 365.452 172.244 365.511L164.733 399.082C164.391 399.006 164.05 398.928 163.709 398.85ZM175.049 401.023L180.25 367.017C180.518 367.058 180.785 367.098 181.053 367.137L176.083 401.177C175.738 401.127 175.393 401.075 175.049 401.023ZM186.503 402.339L189.156 368.041C189.427 368.062 189.699 368.082 189.971 368.101L187.55 402.416C187.201 402.392 186.852 402.366 186.503 402.339Z" fill="#FE470D"/>
<path d="M198.567 94.2388C178.307 94.2388 158.244 98.2294 139.526 105.983C120.807 113.736 103.799 125.101 89.473 139.427C75.1465 153.754 63.7821 170.762 56.0287 189.48C48.2752 208.198 44.2846 228.261 44.2846 248.522L59.7129 248.522C59.7129 230.287 63.3045 212.231 70.2826 195.384C77.2606 178.538 87.4886 163.23 100.382 150.337C113.276 137.443 128.583 127.215 145.43 120.237C162.277 113.259 180.333 109.667 198.567 109.667L198.567 94.2388Z" fill="#415156"/>
<path fill-rule="evenodd" clip-rule="evenodd" d="M49.1625 317.728C75.3896 373.601 132.159 412.291 197.965 412.291C288.701 412.291 362.256 338.735 362.256 248C362.256 157.264 288.701 83.709 197.965 83.7089C132.159 83.7089 75.3895 122.399 49.1624 178.272C48.8166 178.19 48.4699 178.111 48.1222 178.034C74.473 121.696 131.661 82.6665 197.965 82.6665C289.276 82.6665 363.299 156.689 363.299 248C363.299 339.311 289.276 413.333 197.965 413.333C131.661 413.333 74.4731 374.303 48.1223 317.965C48.47 317.889 48.8167 317.81 49.1625 317.728Z" fill="white"/>
<path fill-rule="evenodd" clip-rule="evenodd" d="M438.854 302.656C439.2 302.701 439.547 302.742 439.895 302.78C414.956 413.389 316.108 496 197.965 496C95.5075 496 7.56138 433.868 -30.2508 345.227C-29.9031 345.156 -29.556 345.084 -29.2095 345.01C8.48881 433.177 96.0122 494.958 197.965 494.958C315.574 494.958 413.981 412.746 438.854 302.656ZM-29.2092 150.989C8.48922 62.8231 96.0125 1.04244 197.965 1.04244C315.574 1.04245 413.981 83.2537 438.854 193.343C439.2 193.299 439.547 193.257 439.895 193.219C414.956 82.6113 316.108 -5.41088e-06 197.965 -1.05751e-05C95.5078 -1.50536e-05 7.56176 62.1316 -30.2506 150.773C-29.9028 150.843 -29.5557 150.915 -29.2092 150.989Z" fill="white" fill-opacity="0.2"/>
<circle cx="198.567" cy="248.521" r="11.467" transform="rotate(90 198.567 248.521)" fill="#415156"/>
<circle cx="198.046" cy="247.999" r="43.7829" transform="rotate(90 198.046 247.999)" stroke="white" stroke-width="1.04245"/>
<line x1="198.965" y1="94.6313" x2="198.965" y2="203.403" stroke="#FE470D" stroke-width="1.08772"/>
</g>
<defs>
<clipPath id="clip0_306_125">
<rect width="496" height="440" fill="white" transform="translate(440) rotate(90)"/>
</clipPath>
</defs>
</svg>
