<svg width="450" height="364" viewBox="0 0 450 364" fill="none" xmlns="http://www.w3.org/2000/svg">
<g clip-path="url(#clip0_270_659)">
<circle cx="221.841" cy="221.841" r="126.027" stroke="white" stroke-opacity="0.2" stroke-width="31.6266" stroke-dasharray="0.96 9.58"/>
<path d="M418 222C418 266.495 402.86 309.666 375.07 344.416C347.28 379.165 308.493 403.424 265.086 413.206L262.621 402.269C303.545 393.047 340.114 370.175 366.314 337.413C392.515 304.652 406.789 263.95 406.789 222L418 222Z" fill="#415156"/>
<path fill-rule="evenodd" clip-rule="evenodd" d="M272.249 0.957032C272.29 0.63896 272.328 0.319964 272.363 7.33051e-05C374.051 22.9274 450 113.804 450 222.419C450 316.614 392.879 397.468 311.386 432.231C311.321 431.911 311.255 431.592 311.187 431.273C392.243 396.615 449.042 316.15 449.042 222.419C449.042 114.295 373.46 23.8241 272.249 0.957032ZM132.813 431.273C51.7568 396.615 -5.04162 316.15 -5.04162 222.419C-5.04162 114.295 70.5398 23.8239 171.751 0.956959C171.71 0.638887 171.672 0.319891 171.637 0C69.9493 22.9272 -6 113.804 -6 222.419C-6 316.614 51.1211 397.468 132.614 432.231C132.679 431.911 132.745 431.592 132.813 431.273Z" fill="white" fill-opacity="0.2"/>
<circle cx="221.731" cy="222.345" r="40.2521" stroke="white" stroke-width="0.958382"/>
<line x1="221.5" y1="182" x2="221.5" y2="71" stroke="#FE470D"/>
<line x1="221.5" y1="364" x2="221.5" y2="263" stroke="#FE470D"/>
<line x1="374" y1="222.5" x2="263" y2="222.5" stroke="#FE470D"/>
<line x1="181" y1="222.5" x2="70" y2="222.5" stroke="#FE470D"/>
<path fill-rule="evenodd" clip-rule="evenodd" d="M286.105 359.222C337.472 335.11 373.042 282.918 373.042 222.419C373.042 139.001 305.418 71.3776 222 71.3776C138.582 71.3776 70.9584 139.001 70.9584 222.419C70.9584 282.918 106.528 335.11 157.895 359.222C157.82 359.54 157.747 359.858 157.677 360.178C105.882 335.952 70 283.376 70 222.419C70 138.472 138.053 70.4192 222 70.4192C305.947 70.4192 374 138.472 374 222.419C374 283.376 338.118 335.953 286.323 360.178C286.253 359.859 286.18 359.54 286.105 359.222Z" fill="white"/>
<path fill-rule="evenodd" clip-rule="evenodd" d="M207.362 226L222 213.323L236.638 226H223.714L222 220L220.286 226H207.362ZM220 227H206.207H204.679L205.834 226L222 212L238.166 226L239.32 227H237.793H224H220Z" fill="white"/>
</g>
<defs>
<clipPath id="clip0_270_659">
<rect width="450" height="364" fill="white"/>
</clipPath>
</defs>
</svg>
