<svg width="450" height="364" viewBox="0 0 450 364" fill="none" xmlns="http://www.w3.org/2000/svg">
<g clip-path="url(#clip0_270_636)">
<circle cx="228.479" cy="221.865" r="126.027" stroke="white" stroke-opacity="0.2" stroke-width="31.6266" stroke-dasharray="0.96 9.58"/>
<path fill-rule="evenodd" clip-rule="evenodd" d="M370.319 222.35L338.693 222.244C338.693 222.118 338.693 221.992 338.693 221.865C338.693 221.739 338.693 221.613 338.693 221.486L370.319 221.38C370.32 221.542 370.32 221.704 370.32 221.865C370.32 222.027 370.32 222.189 370.319 222.35ZM227.994 363.705L228.1 332.079C228.226 332.079 228.353 332.079 228.479 332.079C228.606 332.079 228.732 332.079 228.858 332.079L228.964 363.705C228.803 363.706 228.641 363.706 228.479 363.706C228.318 363.706 228.156 363.706 227.994 363.705ZM238.608 363.35L236.382 331.802C236.633 331.784 236.882 331.766 237.132 331.746L239.571 363.279C239.25 363.304 238.93 363.327 238.608 363.35ZM249.151 362.211L244.581 330.916C244.828 330.88 245.074 330.843 245.32 330.805L250.101 362.068C249.785 362.117 249.468 362.164 249.151 362.211ZM259.585 360.285L252.68 329.421C252.923 329.367 253.167 329.311 253.41 329.255L260.526 360.071C260.213 360.143 259.899 360.214 259.585 360.285ZM269.84 357.581L260.631 327.325C260.869 327.252 261.107 327.179 261.344 327.105L270.76 357.297C270.454 357.393 270.147 357.487 269.84 357.581ZM279.867 354.111L268.405 324.634C268.637 324.544 268.869 324.453 269.101 324.361L280.765 353.758C280.466 353.877 280.167 353.994 279.867 354.111ZM289.6 349.898L275.955 321.366C276.18 321.259 276.405 321.15 276.629 321.041L290.469 349.479C290.18 349.62 289.89 349.759 289.6 349.898ZM298.993 344.965L283.247 317.536C283.464 317.412 283.68 317.287 283.896 317.161L299.828 344.481C299.55 344.643 299.272 344.804 298.993 344.965ZM307.988 339.344L290.238 313.168C290.445 313.027 290.651 312.886 290.857 312.745L308.785 338.799C308.52 338.982 308.254 339.163 307.988 339.344ZM316.54 333.066L296.89 308.285C297.086 308.13 297.281 307.974 297.476 307.817L317.294 332.464C317.044 332.666 316.792 332.866 316.54 333.066ZM324.601 326.17C324.838 325.952 325.073 325.734 325.308 325.514L303.713 302.408C303.53 302.579 303.347 302.749 303.163 302.919L324.601 326.17ZM332.128 318.694L309.022 297.099C309.193 296.917 309.363 296.733 309.533 296.549L332.784 317.987C332.566 318.224 332.347 318.46 332.128 318.694ZM339.078 310.68L314.431 290.862C314.587 290.667 314.744 290.472 314.899 290.276L339.68 309.927C339.48 310.179 339.279 310.43 339.078 310.68ZM345.413 302.171L319.358 284.243C319.437 284.129 319.516 284.014 319.594 283.899C319.657 283.807 319.719 283.716 319.782 283.624L345.958 301.374C345.777 301.64 345.595 301.906 345.413 302.171ZM351.095 293.214L323.775 277.282C323.9 277.066 324.026 276.85 324.15 276.634L351.578 292.379C351.418 292.658 351.257 292.936 351.095 293.214ZM356.093 283.855L327.655 270.015C327.764 269.791 327.873 269.566 327.98 269.341L356.512 282.986C356.373 283.276 356.233 283.566 356.093 283.855ZM360.372 274.151L330.975 262.487C331.067 262.255 331.158 262.023 331.248 261.791L360.725 273.253C360.608 273.553 360.491 273.852 360.372 274.151ZM363.911 264.146L333.719 254.73C333.793 254.493 333.866 254.255 333.939 254.017L364.195 263.226C364.101 263.533 364.007 263.84 363.911 264.146ZM366.684 253.912L335.869 246.796C335.925 246.553 335.98 246.309 336.035 246.066L366.898 252.971C366.828 253.285 366.757 253.599 366.684 253.912ZM368.682 243.487L337.419 238.706C337.457 238.46 337.494 238.214 337.53 237.967L368.824 242.537C368.778 242.854 368.731 243.171 368.682 243.487ZM369.893 232.957L338.36 230.518C338.379 230.268 338.398 230.019 338.416 229.769L369.964 231.995C369.941 232.316 369.917 232.636 369.893 232.957Z" fill="#FE470D"/>
<path d="M86.6387 221.865C86.6387 240.492 90.3075 258.937 97.4356 276.146C104.564 293.354 115.012 308.991 128.183 322.162C141.354 335.333 156.99 345.781 174.199 352.909C191.408 360.037 209.852 363.706 228.479 363.706V349.522C211.715 349.522 195.115 346.22 179.627 339.805C164.139 333.389 150.066 323.986 138.212 312.132C126.358 300.278 116.955 286.206 110.54 270.718C104.125 255.23 100.823 238.63 100.823 221.865H86.6387Z" fill="#415156"/>
<path fill-rule="evenodd" clip-rule="evenodd" d="M292.105 359.222C343.472 335.11 379.042 282.918 379.042 222.419C379.042 139.001 311.418 71.3776 228 71.3776C144.582 71.3776 76.9584 139.001 76.9584 222.419C76.9584 282.918 112.528 335.11 163.895 359.222C163.82 359.54 163.747 359.858 163.677 360.178C111.882 335.952 76 283.376 76 222.419C76 138.472 144.053 70.4192 228 70.4192C311.947 70.4192 380 138.472 380 222.419C380 283.376 344.118 335.953 292.323 360.178C292.253 359.859 292.18 359.54 292.105 359.222Z" fill="white"/>
<path fill-rule="evenodd" clip-rule="evenodd" d="M278.249 0.957032C278.29 0.63896 278.328 0.319964 278.363 7.33051e-05C380.051 22.9274 456 113.804 456 222.419C456 316.614 398.879 397.468 317.386 432.231C317.321 431.911 317.255 431.592 317.187 431.273C398.243 396.615 455.042 316.15 455.042 222.419C455.042 114.295 379.46 23.8241 278.249 0.957032ZM138.813 431.273C57.7568 396.615 0.958382 316.15 0.958382 222.419C0.958382 114.295 76.5398 23.8239 177.751 0.956959C177.71 0.638887 177.672 0.319891 177.637 0C75.9493 22.9272 0 113.804 0 222.419C0 316.614 57.1211 397.468 138.614 432.231C138.679 431.911 138.745 431.592 138.813 431.273Z" fill="white" fill-opacity="0.2"/>
<circle cx="228.479" cy="221.866" r="10.5422" fill="#415156"/>
<circle cx="228" cy="222.345" r="40.2521" stroke="white" stroke-width="0.958382"/>
<line x1="87" y1="221.5" x2="187" y2="221.5" stroke="#FE470D"/>
</g>
<defs>
<clipPath id="clip0_270_636">
<rect width="450" height="364" fill="white"/>
</clipPath>
</defs>
</svg>
