<svg width="450" height="477" viewBox="0 0 450 477" fill="none" xmlns="http://www.w3.org/2000/svg">
<g clip-path="url(#clip0_271_2)">
<circle cx="231.618" cy="238.005" r="131.567" transform="rotate(-90 231.618 238.005)" stroke="white" stroke-opacity="0.2" stroke-width="33.0169" stroke-dasharray="1 10.01"/>
<path fill-rule="evenodd" clip-rule="evenodd" d="M232.125 89.9297L232.014 122.946C231.882 122.946 231.75 122.946 231.619 122.946C231.487 122.946 231.355 122.946 231.223 122.946L231.112 89.9297C231.281 89.9291 231.45 89.9288 231.619 89.9288C231.787 89.9288 231.956 89.9291 232.125 89.9297ZM379.693 238.511L346.677 238.4C346.677 238.268 346.677 238.137 346.677 238.005C346.677 237.873 346.677 237.741 346.677 237.609L379.693 237.498C379.694 237.667 379.694 237.836 379.694 238.005C379.694 238.173 379.694 238.342 379.693 238.511ZM379.323 227.43L346.388 229.754C346.369 229.493 346.35 229.232 346.33 228.972L379.248 226.425C379.274 226.76 379.299 227.095 379.323 227.43ZM378.133 216.424L345.463 221.195C345.425 220.937 345.387 220.681 345.347 220.424L377.985 215.432C378.035 215.762 378.085 216.093 378.133 216.424ZM376.122 205.531L343.902 212.74C343.845 212.486 343.788 212.232 343.729 211.978L375.899 204.549C375.975 204.876 376.049 205.203 376.122 205.531ZM373.3 194.826L341.714 204.44C341.638 204.191 341.562 203.943 341.484 203.695L373.004 193.865C373.104 194.185 373.202 194.505 373.3 194.826ZM369.677 184.358L338.905 196.324C338.811 196.081 338.716 195.839 338.62 195.597L369.309 183.421C369.433 183.733 369.556 184.045 369.677 184.358ZM365.279 174.197L335.494 188.442C335.381 188.207 335.268 187.972 335.154 187.738L364.842 173.29C364.989 173.592 365.135 173.894 365.279 174.197ZM360.129 164.391L331.495 180.829C331.365 180.603 331.234 180.377 331.103 180.152L359.625 163.52C359.794 163.809 359.962 164.1 360.129 164.391ZM354.261 155.001L326.935 173.531C326.788 173.315 326.641 173.1 326.493 172.884L353.693 154.169C353.883 154.445 354.072 154.723 354.261 155.001ZM347.707 146.072L321.837 166.587C321.675 166.382 321.512 166.178 321.348 165.975L347.079 145.285C347.289 145.547 347.499 145.809 347.707 146.072ZM340.509 137.657C340.281 137.41 340.053 137.164 339.823 136.919L315.701 159.463C315.88 159.654 316.058 159.846 316.235 160.038L340.509 137.657ZM332.704 129.8L310.16 153.922C309.969 153.743 309.777 153.565 309.585 153.388L331.966 129.114C332.213 129.342 332.459 129.57 332.704 129.8ZM324.338 122.544L303.648 148.275C303.445 148.111 303.241 147.948 303.036 147.786L323.551 121.916C323.814 122.124 324.076 122.334 324.338 122.544ZM315.454 115.93L296.739 143.13C296.619 143.048 296.499 142.966 296.379 142.884C296.284 142.819 296.188 142.754 296.092 142.689L314.622 115.362C314.9 115.551 315.178 115.74 315.454 115.93ZM306.103 109.998L289.471 138.52C289.246 138.389 289.02 138.258 288.794 138.128L305.232 109.494C305.523 109.661 305.814 109.829 306.103 109.998ZM296.333 104.781L281.885 134.469C281.651 134.355 281.416 134.242 281.181 134.13L295.426 104.344C295.729 104.488 296.031 104.634 296.333 104.781ZM286.202 100.314L274.026 131.003C273.784 130.907 273.542 130.812 273.299 130.718L285.265 99.9456C285.578 100.067 285.89 100.19 286.202 100.314ZM275.758 96.619L265.928 128.139C265.68 128.061 265.432 127.985 265.184 127.909L274.797 96.3231C275.118 96.4207 275.438 96.5194 275.758 96.619ZM265.074 93.724L257.645 125.894C257.391 125.836 257.137 125.778 256.883 125.721L264.092 93.5006C264.42 93.574 264.747 93.6485 265.074 93.724ZM254.191 91.6383L249.199 124.276C248.942 124.236 248.686 124.198 248.428 124.16L253.199 91.49C253.53 91.5384 253.861 91.5878 254.191 91.6383ZM243.198 90.3749L240.651 123.293C240.391 123.273 240.13 123.254 239.869 123.236L242.193 90.3005C242.528 90.3242 242.863 90.349 243.198 90.3749Z" fill="white"/>
<path fill-rule="evenodd" clip-rule="evenodd" d="M375.013 171.582C349.841 117.957 295.355 80.8237 232.196 80.8237C145.111 80.8237 74.5151 151.42 74.5152 238.505C74.5152 325.59 145.111 396.186 232.196 396.186C295.355 396.186 349.841 359.053 375.013 305.428C375.345 305.506 375.678 305.582 376.011 305.656C350.721 359.727 295.833 397.187 232.196 397.187C144.559 397.187 73.5146 326.143 73.5146 238.505C73.5146 150.867 144.559 79.8232 232.196 79.8232C295.833 79.8232 350.72 117.283 376.011 171.354C375.677 171.428 375.345 171.504 375.013 171.582Z" fill="white"/>
<path fill-rule="evenodd" clip-rule="evenodd" d="M0.999137 186.047C0.667082 186.004 0.334063 185.965 0.000109368 185.928C23.9352 79.7698 118.806 0.481989 232.196 0.481984C330.532 0.48198 414.94 60.114 451.231 145.189C450.897 145.257 450.564 145.326 450.232 145.397C414.05 60.7777 330.048 1.4825 232.196 1.4825C119.319 1.48251 24.8713 80.3863 0.999137 186.047ZM450.232 331.612C414.05 416.231 330.048 475.527 232.196 475.527C119.319 475.527 24.8714 396.623 0.999144 290.962C0.66709 291.005 0.334071 291.045 0.00011777 291.081C23.9352 397.24 118.806 476.527 232.196 476.527C330.532 476.527 414.94 416.895 451.231 331.82C450.897 331.752 450.564 331.683 450.232 331.612Z" fill="white" fill-opacity="0.2"/>
<line x1="274.65" y1="238" x2="379.7" y2="238" stroke="#FE470D" stroke-width="2"/>
<line x1="232" y1="89.8501" x2="232" y2="196" stroke="#FE470D" stroke-width="2"/>
<mask id="path-7-inside-1_271_2" fill="white">
<path d="M232.119 195.983C255.603 195.983 274.641 215.02 274.641 238.505C274.641 261.989 255.603 281.026 232.119 281.026C208.635 281.026 189.597 261.989 189.597 238.505C189.597 215.02 208.635 195.983 232.119 195.983ZM232.119 268.27C248.558 268.27 261.884 254.943 261.884 238.505C261.884 222.066 248.558 208.739 232.119 208.739C215.68 208.739 202.354 222.066 202.354 238.505C202.354 254.943 215.68 268.27 232.119 268.27Z"/>
</mask>
<path d="M232.119 195.983C255.603 195.983 274.641 215.02 274.641 238.505C274.641 261.989 255.603 281.026 232.119 281.026C208.635 281.026 189.597 261.989 189.597 238.505C189.597 215.02 208.635 195.983 232.119 195.983ZM232.119 268.27C248.558 268.27 261.884 254.943 261.884 238.505C261.884 222.066 248.558 208.739 232.119 208.739C215.68 208.739 202.354 222.066 202.354 238.505C202.354 254.943 215.68 268.27 232.119 268.27Z" stroke="#415156" stroke-width="34.0756" mask="url(#path-7-inside-1_271_2)"/>
</g>
<defs>
<clipPath id="clip0_271_2">
<rect width="477" height="450" fill="white" transform="translate(0 477) rotate(-90)"/>
</clipPath>
</defs>
</svg>
