<svg width="20" height="20" viewBox="0 0 20 20" fill="none" xmlns="http://www.w3.org/2000/svg">
  <g clip-path="url(#clip0_263_385)">
    <path fill-rule="evenodd" clip-rule="evenodd" d="M14.4024 0C17.494 0 20 2.508 20 5.5976V14.4024C20 17.494 17.492 20 14.4024 20H5.5976C2.506 20 0 17.492 0 14.4024V5.5976C0 2.506 2.508 0 5.5976 0H14.4024ZM10 4.8C7.128 4.8 4.8 7.128 4.8 10C4.8 12.872 7.128 15.2 10 15.2C12.872 15.2 15.2 12.872 15.2 10C15.2 7.128 12.872 4.8 10 4.8ZM10 6.4C10.4728 6.4 10.9409 6.49312 11.3777 6.67403C11.8144 6.85495 12.2113 7.12013 12.5456 7.45442C12.8799 7.78871 13.145 8.18557 13.326 8.62234C13.5069 9.05911 13.6 9.52724 13.6 10C13.6 10.4728 13.5069 10.9409 13.326 11.3777C13.145 11.8144 12.8799 12.2113 12.5456 12.5456C12.2113 12.8799 11.8144 13.145 11.3777 13.326C10.9409 13.5069 10.4728 13.6 10 13.6C9.04522 13.6 8.12955 13.2207 7.45442 12.5456C6.77928 11.8705 6.4 10.9548 6.4 10C6.4 9.04522 6.77928 8.12955 7.45442 7.45442C8.12955 6.77928 9.04522 6.4 10 6.4ZM15.8 2.8C15.4287 2.8 15.0726 2.9475 14.8101 3.21005C14.5475 3.4726 14.4 3.8287 14.4 4.2C14.4 4.5713 14.5475 4.9274 14.8101 5.18995C15.0726 5.4525 15.4287 5.6 15.8 5.6C16.1713 5.6 16.5274 5.4525 16.7899 5.18995C17.0525 4.9274 17.2 4.5713 17.2 4.2C17.2 3.8287 17.0525 3.4726 16.7899 3.21005C16.5274 2.9475 16.1713 2.8 15.8 2.8Z" fill="#FE470D" />
  </g>
  <defs>
    <clipPath id="clip0_263_385">
      <rect width="20" height="20" fill="white" />
    </clipPath>
  </defs>
</svg>