<svg width="167" height="19" viewBox="0 0 167 19" fill="none" xmlns="http://www.w3.org/2000/svg">
<path d="M164.517 7.13232V2.67627L163.438 7.13232H162.651L161.559 2.65088V7.13232H160.048V0.26416H161.902L163.032 4.93604L164.289 0.26416H166.041V7.13232H164.517ZM159.325 0.26416V1.63525H158.03V7.09424H156.341V1.63525H154.958V0.26416H159.325Z" fill="#FE470D"/>
<path d="M141.601 0.26416H147.53C148.765 0.26416 149.819 0.475749 150.691 0.898926C151.563 1.3221 152.231 1.94841 152.697 2.77783C153.162 3.60726 153.395 4.63135 153.395 5.8501C153.395 6.8488 153.26 7.70361 152.989 8.41455C152.718 9.11702 152.333 9.70524 151.833 10.1792C151.334 10.6447 150.737 11.0171 150.043 11.2964L148.914 11.9692H144.102L144.089 8.88428H147.428C147.936 8.88428 148.355 8.77425 148.685 8.5542C149.024 8.32568 149.273 8.0083 149.434 7.60205C149.603 7.18734 149.688 6.70492 149.688 6.15479C149.688 5.5708 149.612 5.07145 149.459 4.65674C149.316 4.23356 149.083 3.91195 148.761 3.69189C148.448 3.46338 148.038 3.34912 147.53 3.34912H145.321V18.7485H141.601V0.26416ZM149.993 18.7485L146.603 10.5093L150.5 10.4966L153.966 18.5708V18.7485H149.993Z" fill="white"/>
<path d="M133.78 3.56494L129.806 18.7485H125.883L131.659 0.26416H134.11L133.78 3.56494ZM136.915 18.7485L132.916 3.56494L132.548 0.26416H135.036L140.864 18.7485H136.915ZM137.055 11.855V14.9399H128.714V11.855H137.055Z" fill="white"/>
<path d="M122.112 12.5913H125.806C125.755 13.9793 125.476 15.1515 124.968 16.1079C124.46 17.0558 123.737 17.7752 122.797 18.2661C121.866 18.757 120.74 19.0024 119.42 19.0024C118.396 19.0024 117.486 18.8332 116.691 18.4946C115.895 18.1476 115.218 17.6398 114.659 16.9712C114.101 16.3026 113.678 15.4774 113.39 14.4956C113.111 13.5054 112.971 12.367 112.971 11.0806V7.94482C112.971 6.65837 113.119 5.52002 113.415 4.52979C113.72 3.53955 114.152 2.71012 114.71 2.0415C115.277 1.36442 115.959 0.856608 116.754 0.518066C117.558 0.171061 118.464 -0.00244141 119.471 -0.00244141C120.817 -0.00244141 121.942 0.251465 122.848 0.759277C123.753 1.26709 124.452 2.00765 124.943 2.98096C125.442 3.9458 125.742 5.12646 125.844 6.52295H122.137C122.112 5.64274 122.01 4.95296 121.832 4.45361C121.663 3.9458 121.392 3.59033 121.02 3.38721C120.647 3.17562 120.131 3.06982 119.471 3.06982C118.98 3.06982 118.557 3.15869 118.201 3.33643C117.846 3.5057 117.554 3.78076 117.325 4.16162C117.097 4.54248 116.928 5.04183 116.818 5.65967C116.716 6.27751 116.665 7.03076 116.665 7.91943V11.0806C116.665 11.9523 116.712 12.6971 116.805 13.3149C116.898 13.9243 117.046 14.4237 117.249 14.813C117.452 15.2023 117.727 15.4858 118.074 15.6636C118.43 15.8413 118.878 15.9302 119.42 15.9302C120.046 15.9302 120.55 15.8371 120.931 15.6509C121.32 15.4647 121.608 15.1304 121.794 14.6479C121.98 14.1655 122.086 13.48 122.112 12.5913Z" fill="white"/>
<path d="M99.9573 0.26416H105.886C107.122 0.26416 108.175 0.475749 109.047 0.898926C109.919 1.3221 110.587 1.94841 111.053 2.77783C111.518 3.60726 111.751 4.63135 111.751 5.8501C111.751 6.8488 111.616 7.70361 111.345 8.41455C111.074 9.11702 110.689 9.70524 110.19 10.1792C109.69 10.6447 109.094 11.0171 108.4 11.2964L107.27 11.9692H102.458L102.446 8.88428H105.784C106.292 8.88428 106.711 8.77425 107.041 8.5542C107.38 8.32568 107.629 8.0083 107.79 7.60205C107.96 7.18734 108.044 6.70492 108.044 6.15479C108.044 5.5708 107.968 5.07145 107.816 4.65674C107.672 4.23356 107.439 3.91195 107.117 3.69189C106.804 3.46338 106.394 3.34912 105.886 3.34912H103.677V18.7485H99.9573V0.26416ZM108.349 18.7485L104.959 10.5093L108.857 10.4966L112.323 18.5708V18.7485H108.349Z" fill="white"/>
<path d="M94.4338 0.26416H98.1409V12.9595C98.1409 14.3813 97.8785 15.5409 97.3538 16.438C96.8375 17.3267 96.1223 17.9784 95.2083 18.3931C94.2942 18.7993 93.2489 19.0024 92.0725 19.0024C90.8876 19.0024 89.8339 18.7993 88.9114 18.3931C87.9889 17.9784 87.2694 17.3267 86.7532 16.438C86.2454 15.5409 85.9915 14.3813 85.9915 12.9595V0.26416H89.6985V12.9595C89.6985 13.7635 89.7874 14.3813 89.9651 14.813C90.1513 15.2446 90.4179 15.5409 90.7649 15.7017C91.1204 15.854 91.5562 15.9302 92.0725 15.9302C92.5972 15.9302 93.0289 15.854 93.3674 15.7017C93.7144 15.5409 93.9768 15.2446 94.1545 14.813C94.3407 14.3813 94.4338 13.7635 94.4338 12.9595V0.26416Z" fill="white"/>
<path d="M84.467 8.07178V11.1567C84.467 12.4601 84.3062 13.6027 83.9846 14.5845C83.6715 15.5578 83.2229 16.3745 82.6389 17.0347C82.0634 17.6864 81.3652 18.1772 80.5442 18.5073C79.7317 18.8374 78.8303 19.0024 77.8401 19.0024C76.8499 19.0024 75.9443 18.8374 75.1233 18.5073C74.3108 18.1772 73.6083 17.6864 73.0159 17.0347C72.4319 16.3745 71.9791 15.5578 71.6575 14.5845C71.3359 13.6027 71.175 12.4601 71.175 11.1567V8.07178C71.175 6.73454 71.3316 5.56657 71.6448 4.56787C71.9579 3.56071 72.4107 2.72282 73.0032 2.0542C73.5956 1.37712 74.2981 0.869303 75.1106 0.530762C75.9231 0.183757 76.8245 0.0102539 77.8147 0.0102539C78.8049 0.0102539 79.7063 0.183757 80.5188 0.530762C81.3313 0.869303 82.0338 1.37712 82.6262 2.0542C83.2187 2.72282 83.6715 3.56071 83.9846 4.56787C84.3062 5.56657 84.467 6.73454 84.467 8.07178ZM80.7727 11.1567V8.04639C80.7727 7.16618 80.7092 6.41715 80.5823 5.79932C80.4553 5.17301 80.2649 4.66097 80.011 4.26318C79.7571 3.8654 79.4482 3.57341 79.0842 3.38721C78.7203 3.20101 78.2971 3.10791 77.8147 3.10791C77.3323 3.10791 76.9049 3.20101 76.5325 3.38721C76.1685 3.57341 75.8596 3.8654 75.6057 4.26318C75.3603 4.66097 75.1741 5.17301 75.0471 5.79932C74.9286 6.41715 74.8694 7.16618 74.8694 8.04639V11.1567C74.8694 12.0031 74.9329 12.7267 75.0598 13.3276C75.1868 13.9285 75.3772 14.4194 75.6311 14.8003C75.885 15.1812 76.1939 15.4647 76.5579 15.6509C76.9303 15.8286 77.3577 15.9175 77.8401 15.9175C78.314 15.9175 78.733 15.8286 79.0969 15.6509C79.4693 15.4647 79.7782 15.1812 80.0237 14.8003C80.2691 14.4194 80.4553 13.9285 80.5823 13.3276C80.7092 12.7267 80.7727 12.0031 80.7727 11.1567Z" fill="white"/>
<path d="M61.5256 0.26416L64.344 8.59229L67.137 0.26416H71.1868L66.2102 12.0327V18.7485H62.4651V12.0327L57.4885 0.26416H61.5256Z" fill="white"/>
<path d="M57.6523 15.6763V18.7485H49.6162V15.6763H57.6523ZM50.7715 0.26416V18.7485H47.0518V0.26416H50.7715ZM56.5732 7.75439V10.7378H49.6162V7.75439H56.5732ZM57.627 0.26416V3.34912H49.6162V0.26416H57.627Z" fill="white"/>
<path d="M38.8115 14.8003L42.3154 0.26416H46.3271L40.9697 18.7485H38.2656L38.8115 14.8003ZM35.8154 0.26416L39.3066 14.8003L39.8779 18.7485H37.1611L31.8418 0.26416H35.8154Z" fill="white"/>
<path d="M31.6758 8.07178V11.1567C31.6758 12.4601 31.515 13.6027 31.1934 14.5845C30.8802 15.5578 30.4316 16.3745 29.8477 17.0347C29.2721 17.6864 28.5739 18.1772 27.7529 18.5073C26.9404 18.8374 26.0391 19.0024 25.0488 19.0024C24.0586 19.0024 23.153 18.8374 22.332 18.5073C21.5195 18.1772 20.8171 17.6864 20.2246 17.0347C19.6406 16.3745 19.1878 15.5578 18.8662 14.5845C18.5446 13.6027 18.3838 12.4601 18.3838 11.1567V8.07178C18.3838 6.73454 18.5404 5.56657 18.8535 4.56787C19.1667 3.56071 19.6195 2.72282 20.2119 2.0542C20.8044 1.37712 21.5068 0.869303 22.3193 0.530762C23.1318 0.183757 24.0332 0.0102539 25.0234 0.0102539C26.0137 0.0102539 26.915 0.183757 27.7275 0.530762C28.54 0.869303 29.2425 1.37712 29.835 2.0542C30.4274 2.72282 30.8802 3.56071 31.1934 4.56787C31.515 5.56657 31.6758 6.73454 31.6758 8.07178ZM27.9814 11.1567V8.04639C27.9814 7.16618 27.918 6.41715 27.791 5.79932C27.6641 5.17301 27.4736 4.66097 27.2197 4.26318C26.9658 3.8654 26.6569 3.57341 26.293 3.38721C25.929 3.20101 25.5059 3.10791 25.0234 3.10791C24.541 3.10791 24.1136 3.20101 23.7412 3.38721C23.3773 3.57341 23.0684 3.8654 22.8145 4.26318C22.569 4.66097 22.3828 5.17301 22.2559 5.79932C22.1374 6.41715 22.0781 7.16618 22.0781 8.04639V11.1567C22.0781 12.0031 22.1416 12.7267 22.2686 13.3276C22.3955 13.9285 22.5859 14.4194 22.8398 14.8003C23.0938 15.1812 23.4027 15.4647 23.7666 15.6509C24.139 15.8286 24.5664 15.9175 25.0488 15.9175C25.5228 15.9175 25.9417 15.8286 26.3057 15.6509C26.6781 15.4647 26.987 15.1812 27.2324 14.8003C27.4779 14.4194 27.6641 13.9285 27.791 13.3276C27.918 12.7267 27.9814 12.0031 27.9814 11.1567Z" fill="white"/>
<path d="M1.32031 0.26416H4.58301L8.35352 12.9087L12.1113 0.26416H14.9932L9.7373 18.7485H6.95703L1.32031 0.26416ZM0 0.26416H3.11035L3.59277 12.4517V18.7485H0V0.26416ZM13.5713 0.26416H16.6943V18.7485H13.1143V12.4517L13.5713 0.26416Z" fill="white"/>
</svg>
