<svg width="24" height="24" viewBox="0 0 24 24" fill="none" xmlns="http://www.w3.org/2000/svg">
<path d="M18.2858 2.28571V17.7143C18.2858 18.2396 18.1823 18.7597 17.9813 19.245C17.7803 19.7303 17.4856 20.1713 17.1142 20.5427C16.7428 20.9141 16.3018 21.2088 15.8165 21.4098C15.3312 21.6108 14.8111 21.7143 14.2858 21.7143C13.7605 21.7143 13.2403 21.6108 12.755 21.4098C12.2697 21.2088 11.8288 20.9141 11.4573 20.5427C11.0859 20.1713 10.7913 19.7303 10.5902 19.245C10.3892 18.7597 10.2858 18.2396 10.2858 17.7143V7.42856C10.2858 6.3677 9.86434 5.35028 9.11419 4.60014C8.36405 3.84999 7.34663 3.42856 6.28577 3.42856C5.2249 3.42856 4.20749 3.84999 3.45734 4.60014C2.70719 5.35028 2.28577 6.3677 2.28577 7.42856V21.1428M18.2858 2.28571L22.2858 6.28571M18.2858 2.28571L14.2858 6.28571" stroke="#FE470D" stroke-width="2" stroke-linecap="round" stroke-linejoin="round"/>
</svg>
