<svg width="24" height="24" viewBox="0 0 24 24" fill="none" xmlns="http://www.w3.org/2000/svg">
<path d="M12 12C14.9823 12 17.3999 9.58232 17.3999 6.59999C17.3999 3.61767 14.9823 1.20001 12 1.20001C9.01763 1.20001 6.59998 3.61767 6.59998 6.59999C6.59998 9.58232 9.01763 12 12 12Z" stroke="#FE470D" stroke-width="2"/>
<path d="M17.4 14.1599H17.7802C18.5697 14.1601 19.3321 14.4487 19.9239 14.9713C20.5157 15.4939 20.8964 16.2147 20.9943 16.9981L21.4165 20.372C21.4545 20.676 21.4274 20.9845 21.337 21.2772C21.2467 21.5699 21.0951 21.84 20.8923 22.0696C20.6896 22.2992 20.4403 22.483 20.1611 22.609C19.8819 22.7349 19.579 22.7999 19.2727 22.7999H4.72736C4.42105 22.7999 4.11823 22.7349 3.839 22.609C3.55977 22.483 3.31051 22.2992 3.10777 22.0696C2.90503 21.84 2.75343 21.5699 2.66306 21.2772C2.57268 20.9845 2.54558 20.676 2.58357 20.372L3.00476 16.9981C3.10272 16.2143 3.48365 15.4933 4.07594 14.9706C4.66823 14.4479 5.43106 14.1596 6.22099 14.1599H6.60007" stroke="#FE470D" stroke-width="2" stroke-linecap="round" stroke-linejoin="round"/>
</svg>
