<svg width="24" height="24" viewBox="0 0 24 24" fill="none" xmlns="http://www.w3.org/2000/svg">
<g clip-path="url(#clip0_264_444)">
<path d="M12 19.2786V23M16.4444 17.7786V20.5M7.55556 17.7786V20.5M13.8916 5.9175C13.7896 5.63444 13.6004 5.38933 13.3502 5.216C13.0999 5.04267 12.8008 4.94966 12.4942 4.9498H11.3476C11.0224 4.95093 10.709 5.06932 10.4673 5.28233C10.2256 5.49535 10.0725 5.78807 10.0374 6.10458C10.0022 6.42109 10.0873 6.73919 10.2765 6.99813C10.4657 7.25706 10.7458 7.43868 11.0631 7.50828L12.8107 7.88421C13.1665 7.9619 13.4806 8.16521 13.693 8.45532C13.9054 8.74542 14.0012 9.10197 13.9621 9.45683C13.9229 9.8117 13.7516 10.14 13.4808 10.379C13.21 10.618 12.8588 10.751 12.4942 10.7525H11.5058C11.1993 10.7524 10.9003 10.6593 10.6501 10.486C10.3998 10.3127 10.2106 10.0677 10.1084 9.78479M12 4.9498V3.5M12 12.2023V10.7525M4.44444 8.28626C4.32657 8.28626 4.21352 8.24042 4.13017 8.15882C4.04683 8.07722 4 7.96654 4 7.85115C4 7.73575 4.04683 7.62507 4.13017 7.54347C4.21352 7.46187 4.32657 7.41603 4.44444 7.41603C4.56232 7.41603 4.67536 7.46187 4.75871 7.54347C4.84206 7.62507 4.88889 7.73575 4.88889 7.85115C4.88889 7.96654 4.84206 8.07722 4.75871 8.15882C4.67536 8.24042 4.56232 8.28626 4.44444 8.28626ZM19.5556 8.28626C19.4377 8.28626 19.3246 8.24042 19.2413 8.15882C19.1579 8.07722 19.1111 7.96654 19.1111 7.85115C19.1111 7.73575 19.1579 7.62507 19.2413 7.54347C19.3246 7.46187 19.4377 7.41603 19.5556 7.41603C19.6734 7.41603 19.7865 7.46187 19.8698 7.54347C19.9532 7.62507 20 7.73575 20 7.85115C20 7.96654 19.9532 8.07722 19.8698 8.15882C19.7865 8.24042 19.6734 8.28626 19.5556 8.28626Z" stroke="#FE470D" stroke-width="2" stroke-linecap="round" stroke-linejoin="round"/>
<path d="M21.3077 1H2.69231C2.24348 1 1.81303 1.18437 1.49567 1.51256C1.1783 1.84075 1 2.28587 1 2.75V13.25C1 13.7141 1.1783 14.1592 1.49567 14.4874C1.81303 14.8156 2.24348 15 2.69231 15H21.3077C21.7565 15 22.187 14.8156 22.5043 14.4874C22.8217 14.1592 23 13.7141 23 13.25V2.75C23 2.28587 22.8217 1.84075 22.5043 1.51256C22.187 1.18437 21.7565 1 21.3077 1Z" stroke="#FE470D" stroke-width="2" stroke-linecap="round" stroke-linejoin="round"/>
</g>
<defs>
<clipPath id="clip0_264_444">
<rect width="24" height="24" fill="white"/>
</clipPath>
</defs>
</svg>
