<svg width="21" height="14" viewBox="0 0 21 14" fill="none" xmlns="http://www.w3.org/2000/svg">
<g clip-path="url(#clip0_265_463)">
<path d="M0.907471 0.38916H20.426V13.6114H0.907471V0.38916Z" fill="white"/>
<path d="M0.907471 0.38916H20.426V2.12893H0.907471V0.38916ZM0.907471 3.52074H20.426V4.91255H0.907471V3.52074ZM0.907471 6.30437H20.426V7.69618H0.907471V6.30437ZM0.907471 9.08799H20.426V10.4798H0.907471V9.08799ZM0.907471 11.8716H20.426V13.6114H0.907471V11.8716Z" fill="#D22F27"/>
<path d="M0.907471 0.38916H6.25932V6.30436H0.907471V0.38916Z" fill="#1E50A0"/>
<path d="M3.88407 3.55174L4.37046 3.14115H3.76916L3.58342 2.47656L3.39768 3.14115H2.79639L3.28278 3.55174L3.09703 4.21633L3.58342 3.80574L4.06981 4.21633L3.88407 3.55174Z" fill="white" stroke="white" stroke-linecap="round" stroke-linejoin="round"/>
</g>
<defs>
<clipPath id="clip0_265_463">
<rect width="20" height="14" fill="white" transform="translate(0.666748)"/>
</clipPath>
</defs>
</svg>
